<svg width="27" height="27" viewBox="0 0 27 27" fill="none" xmlns="http://www.w3.org/2000/svg">
<g clip-path="url(#clip0_2298_148)">
<g clip-path="url(#clip1_2298_148)">
<path d="M9.5 19.5L13.5 16.45L17.5 19.5L16 14.55L20 11.7H15.1L13.5 6.5L11.9 11.7H7L11 14.55L9.5 19.5ZM13.5 23.5C12.1167 23.5 10.8167 23.2375 9.6 22.7125C8.38333 22.1875 7.325 21.475 6.425 20.575C5.525 19.675 4.8125 18.6167 4.2875 17.4C3.7625 16.1833 3.5 14.8833 3.5 13.5C3.5 12.1167 3.7625 10.8167 4.2875 9.6C4.8125 8.38333 5.525 7.325 6.425 6.425C7.325 5.525 8.38333 4.8125 9.6 4.2875C10.8167 3.7625 12.1167 3.5 13.5 3.5C14.8833 3.5 16.1833 3.7625 17.4 4.2875C18.6167 4.8125 19.675 5.525 20.575 6.425C21.475 7.325 22.1875 8.38333 22.7125 9.6C23.2375 10.8167 23.5 12.1167 23.5 13.5C23.5 14.8833 23.2375 16.1833 22.7125 17.4C22.1875 18.6167 21.475 19.675 20.575 20.575C19.675 21.475 18.6167 22.1875 17.4 22.7125C16.1833 23.2375 14.8833 23.5 13.5 23.5Z" fill="currentColor" stroke="#4F378A" stroke-width="0.5"/>
</g>
</g>
<defs>
<clipPath id="clip0_2298_148">
<rect width="27" height="27" fill="white"/>
</clipPath>
<clipPath id="clip1_2298_148">
<rect x="-6.5" y="-6.5" width="40" height="40" rx="20" fill="white"/>
</clipPath>
</defs>
</svg>